<svg xmlns="http://www.w3.org/2000/svg" version="1.1" xmlns:xlink="http://www.w3.org/1999/xlink" xmlns:svgjs="http://svgjs.dev/svgjs" width="2000" height="2250" viewBox="0 0 2000 2250"><g transform="matrix(1,0,0,1,0.0011525275272106228,0)"><svg viewBox="0 0 320 360" data-background-color="#111111" preserveAspectRatio="xMidYMid meet" height="2250" width="2000" xmlns="http://www.w3.org/2000/svg" xmlns:xlink="http://www.w3.org/1999/xlink"><g id="tight-bounds" transform="matrix(1,0,0,1,0.00018440440442191175,0)"><svg viewBox="0 0 320 360" height="360" width="320"><g><svg></svg></g><g><svg viewBox="0 0 320 360" height="360" width="320"><g><path xmlns="http://www.w3.org/2000/svg" d="M294.684 112.125c-8.775-10.699-25.381-16.201-43-22.006-7.56-2.498-15.357-5.097-22.985-8.235-7.695-3.173-15.256-7.257-22.613-11.172-14.952-8.033-30.41-16.336-46.105-16.336-15.661 0-31.119 8.303-46.071 16.336-7.358 3.949-14.952 8.033-22.648 11.205-7.594 3.139-15.425 5.704-22.985 8.236-17.618 5.839-34.224 11.341-42.999 22.006-11.712 14.277-11.442 35.439-11.172 57.817 0.034 3.375 0.068 6.717 0.067 10.024 0 3.308-0.034 6.649-0.101 10.024-0.27 22.411-0.54 43.54 11.172 57.851 8.775 10.666 25.381 16.167 42.966 22.006 7.56 2.498 15.357 5.097 23.019 8.235 7.695 3.173 15.256 7.223 22.579 11.172 14.986 8.067 30.444 16.37 46.105 16.37 15.695 0 31.153-8.303 46.105-16.336 7.358-3.949 14.918-8.033 22.614-11.172 7.594-3.139 15.357-5.704 22.884-8.202 17.72-5.873 34.326-11.374 43.101-22.039 11.712-14.277 11.442-35.439 11.171-57.817-0.034-3.409-0.101-6.75-0.101-10.058 0-3.308 0.034-6.649 0.101-9.991 0.371-22.479 0.641-43.641-11.104-57.918zM305.552 103.215c-15.728-19.171-45.801-23.727-71.486-34.326-22.985-9.45-46.375-28.588-74.051-28.587-27.676 0-51.066 19.137-74.052 28.587-25.719 10.598-55.758 15.155-71.486 34.326-17.078 20.791-14.311 50.121-14.311 76.785 0 26.63-2.768 55.994 14.277 76.785 15.728 19.171 45.801 23.727 71.487 34.326 22.985 9.484 46.375 28.588 74.051 28.587 27.676 0 51.066-19.103 74.051-28.587 25.719-10.598 55.758-15.155 71.486-34.326 17.045-20.791 14.277-50.121 14.277-76.785 0.068-26.664 2.835-55.994-14.243-76.785zM309.872 189.923c0.304 23.221 0.574 45.059-12.083 60.483-9.518 11.577-26.664 17.281-44.822 23.289-7.56 2.498-15.29 5.063-22.715 8.134-7.493 3.071-14.952 7.088-22.175 10.969-15.458 8.303-31.355 16.842-48.062 16.842-16.707 0-32.604-8.539-47.995-16.808-7.257-3.915-14.75-7.932-22.243-11.003-7.527-3.105-15.256-5.67-22.748-8.134-18.192-6.008-35.338-11.712-44.823-23.289-12.623-15.391-12.353-37.262-12.083-60.415 0.034-3.375 0.101-6.683 0.101-9.991 0-3.308-0.034-6.615-0.067-9.991-0.304-23.154-0.574-45.025 12.083-60.415 9.518-11.577 26.664-17.247 44.822-23.289 7.527-2.498 15.256-5.063 22.749-8.134 7.493-3.105 14.986-7.122 22.242-11.003 15.391-8.269 31.322-16.842 47.995-16.842 16.673 0 32.604 8.539 47.995 16.808 7.257 3.915 14.75 7.932 22.243 11.003 7.493 3.105 15.256 5.637 22.715 8.134 18.158 6.008 35.338 11.712 44.822 23.289 12.657 15.425 12.387 37.262 12.083 60.416-0.034 3.409-0.101 6.717-0.101 9.99 0 3.308 0.034 6.615 0.067 9.957z" fill="#aaaaaa" fill-rule="nonzero" stroke="none" stroke-width="1" stroke-linecap="butt" stroke-linejoin="miter" stroke-miterlimit="10" stroke-dasharray="" stroke-dashoffset="0" font-family="none" font-weight="none" font-size="none" text-anchor="none" style="mix-blend-mode: normal" data-fill-palette-color="tertiary"></path></g><g transform="matrix(1,0,0,1,64,117.79564832238694)"><svg viewBox="0 0 192 124.40870335522612" height="124.40870335522612" width="192"><g><svg viewBox="0 0 222.23525568831172 144" height="124.40870335522612" width="192"><g><svg viewBox="0 0 128.62337662337666 144" height="144" width="128.62337662337666"><g><svg viewBox="0 0 128.62337662337666 144" height="144" width="128.62337662337666"><g><svg viewBox="0 0 128.62337662337666 144" height="144" width="128.62337662337666"><g transform="matrix(1,0,0,1,0,0)"><svg width="128.62337662337666" viewBox="0.15000000596046448 -34.650001525878906 30.950000762939453 34.650001525878906" height="144" data-palette-color="#111111"><path d="M15.8-19.3L15.8-19.3Q18.05-23.05 20.2-26.9 22.35-30.75 24.1-34.65L24.1-34.65 31.1-34.65Q28.3-29.35 25.28-24.13 22.25-18.9 18.8-13.6L18.8-13.6 18.8 0 12.5 0 12.5-13.5Q9.05-18.85 6-24.1 2.95-29.35 0.15-34.65L0.15-34.65 7.55-34.65Q9.3-30.75 11.4-26.9 13.5-23.05 15.8-19.3Z" opacity="1" transform="matrix(1,0,0,1,0,0)" fill="#111111" class="undefined-text-0" data-fill-palette-color="quaternary" id="text-0"></path></svg></g></svg></g></svg></g></svg></g><g transform="matrix(1,0,0,1,162.61832062337666,42.19153246753246)"><svg viewBox="0 0 59.61693506493508 59.61693506493508" height="59.61693506493508" width="59.61693506493508"><g><svg xmlns="http://www.w3.org/2000/svg" xmlns:xlink="http://www.w3.org/1999/xlink" version="1.1" x="0" y="0" viewBox="0 0 24 24" style="enable-background:new 0 0 24 24;" xml:space="preserve" height="59.61693506493508" width="59.61693506493508" class="icon-icon-0" data-fill-palette-color="quaternary" id="icon-0"><g fill="#111111" data-fill-palette-color="quaternary"><path d="M21.5 0h-19C1.121 0 0 1.122 0 2.5v19C0 22.878 1.121 24 2.5 24h19c1.379 0 2.5-1.122 2.5-2.5v-19C24 1.122 22.879 0 21.5 0zM2.5 1h19C22.327 1 23 1.673 23 2.5V4H1V2.5C1 1.673 1.673 1 2.5 1zM21.5 23h-19C1.673 23 1 22.327 1 21.5V5h22v16.5C23 22.327 22.327 23 21.5 23z" fill="#111111" data-fill-palette-color="quaternary"></path><circle cx="2.5" cy="2.5" r="0.50" fill="#111111" data-fill-palette-color="quaternary"></circle><circle cx="4.5" cy="2.5" r="0.50" fill="#111111" data-fill-palette-color="quaternary"></circle><circle cx="6.5" cy="2.5" r="0.50" fill="#111111" data-fill-palette-color="quaternary"></circle><path d="M4.853 10.148c-0.195-0.195-0.512-0.195-0.707 0s-0.195 0.512 0 0.707l2.646 2.646-2.646 2.646c-0.195 0.195-0.195 0.512 0 0.707C4.244 16.951 4.372 17 4.5 17s0.256-0.049 0.353-0.145l3-3c0.195-0.195 0.195-0.512 0-0.707L4.853 10.148z" fill="#111111" data-fill-palette-color="quaternary"></path><path d="M14.5 15h-5C9.224 15 9 15.224 9 15.5S9.224 16 9.5 16h5c0.276 0 0.5-0.224 0.5-0.5S14.776 15 14.5 15z" fill="#111111" data-fill-palette-color="quaternary"></path></g></svg></g></svg></g></svg></g></svg></g></svg></g><defs></defs></svg><rect width="320" height="360" fill="none" stroke="none" visibility="hidden"></rect></g></svg></g></svg>