<svg xmlns="http://www.w3.org/2000/svg" version="1.1" xmlns:xlink="http://www.w3.org/1999/xlink" xmlns:svgjs="http://svgjs.dev/svgjs" width="2000" height="580" viewBox="0 0 2000 580"><g transform="matrix(1,0,0,1,-1.21209371495911,-0.2627177946160373)"><svg viewBox="0 0 396 115" data-background-color="#111111" preserveAspectRatio="xMidYMid meet" height="580" width="2000" xmlns="http://www.w3.org/2000/svg" xmlns:xlink="http://www.w3.org/1999/xlink"><g id="tight-bounds" transform="matrix(1,0,0,1,0.23999455556190696,0.0520905972083483)"><svg viewBox="0 0 395.52 114.89581880558327" height="114.89581880558327" width="395.52"><g><svg viewBox="0 0 395.52 114.89581880558327" height="114.89581880558327" width="395.52"><g><svg viewBox="0 0 605.533383473819 175.90325118411124" height="114.89581880558327" width="395.52"><g transform="matrix(1,0,0,1,210.01338347381898,51.82964338112805)"><svg viewBox="0 0 395.52 72.24396442185514" height="72.24396442185514" width="395.52"><g><svg viewBox="0 0 395.52 72.24396442185514" height="72.24396442185514" width="395.52"><g><svg viewBox="0 0 395.52 72.24396442185514" height="72.24396442185514" width="395.52"><g transform="matrix(1,0,0,1,0,0)"><svg width="395.52" viewBox="1.5 -28.75 159.2899932861328 28.75" height="72.24396442185514" data-palette-color="#ffffff"><g class="undefined-text-0" data-fill-palette-color="primary" id="text-0"><path d="M35.95-26.9L21.55-13.15 21.55 0 15.9 0 15.9-13.15 1.5-26.9 7.2-28.75 18.7-17.8 18.7-17.8 30.3-28.75 35.95-26.9ZM41.45-25.3L41.45-25.3 47.15-28.75 57.45-28.75 57.45-23.1 47.75-23.1 47.75-17.2 57.45-17.2 57.45-11.5 47.75-11.5 47.75 0 41.45 0 41.45-25.3ZM75.9-25.3L75.9-25.3 70-28.75 59.7-28.75 59.7-23.1 69.6-23.1 69.6-17.2 59.7-17.2 59.7-11.5 69.6-11.5 69.6 0 75.9 0 75.9-25.3ZM83.4-14.75L83.4-25.3 89.1-28.75 99.4-28.75 99.4-22.85 89.5-22.85 89.5-17.2 99.4-17.2 99.4-11.35 89.1-11.35 83.4-14.75ZM117.85-3.4L117.85-13.75 111.95-17.2 101.65-17.2 101.65-11.35 111.55-11.35 111.55-5.65 101.85-5.65 101.85 0 111.95 0 117.85-3.4ZM83.4-9.1L89.7-9.1 89.7-5.65 99.4-5.65 99.4 0 89.25 0 83.4-3.4 83.4-9.1ZM111.55-19.45L117.85-19.45 117.85-25.3 111.95-28.75 101.65-28.75 101.65-22.85 111.55-22.85 111.55-19.45ZM126.34-28.75L126.34-28.75 132.64-28.75 132.64-17.2 142.34-17.2 142.34-11.5 132.64-11.5 132.64 0 126.34 0 126.34-28.75ZM160.79-28.75L160.79-28.75 154.49-28.75 154.49-17.2 144.79-17.2 144.79-11.5 154.49-11.5 154.49 0 160.79 0 160.79-28.75Z" fill="#ffffff" data-fill-palette-color="primary"></path></g></svg></g></svg></g></svg></g></svg></g><g><svg viewBox="0 0 175.90325118411124 175.90325118411124" height="175.90325118411124" width="175.90325118411124"><g><svg></svg></g><g id="icon-0"><svg viewBox="0 0 175.90325118411124 175.90325118411124" height="175.90325118411124" width="175.90325118411124"><g><path d="M0 87.952c0-48.574 39.377-87.952 87.952-87.952 48.574 0 87.952 39.377 87.951 87.952 0 48.574-39.377 87.952-87.951 87.951-48.574 0-87.952-39.377-87.952-87.951zM87.952 169.388c44.976 0 81.437-36.46 81.436-81.436 0-44.976-36.46-81.437-81.436-81.437-44.976 0-81.437 36.46-81.437 81.437 0 44.976 36.46 81.437 81.437 81.436z" data-fill-palette-color="accent" fill="#dedede" stroke="transparent"></path></g><g transform="matrix(1,0,0,1,37.05418174268671,64.60282015861372)"><svg viewBox="0 0 101.79488769873782 46.69761086688379" height="46.69761086688379" width="101.79488769873782"><g><svg xmlns="http://www.w3.org/2000/svg" version="1.1" data-icon="task" data-container-transform="translate(0 34)" viewBox="0 35.28099822998047 128 58.71900177001953" x="0" y="0" height="46.69761086688379" width="101.79488769873782" class="icon-s-0" data-fill-palette-color="accent" id="s-0"><path d="M58.781 1.281l-31.063 30.969-12.969-13.156-5.688 5.625 15.781 16 2.844 2.844 2.844-2.844 33.906-33.781-5.656-5.656z m-55.281 2.719c-1.967 0-3.5 1.533-3.5 3.5v49c0 1.967 1.533 3.5 3.5 3.5h49c1.967 0 3.5-1.533 3.5-3.5v-36.406l-4 4v31.906h-48v-48h43.188l4-4h-47.688z m64.5 12v4h60v-4h-60z m0 12v4h50v-4h-50z m0 12v4h54v-4h-54z" transform="translate(0 34)" fill="#dedede" data-fill-palette-color="accent"></path></svg></g></svg></g></svg></g></svg></g></svg></g></svg></g><defs></defs></svg><rect width="395.52" height="114.89581880558327" fill="none" stroke="none" visibility="hidden"></rect></g></svg></g></svg>